<svg version="1.1" id="Layer_1" xmlns="http://www.w3.org/2000/svg" xmlns:xlink="http://www.w3.org/1999/xlink" x="0px" y="0px"
	 width="100%" viewBox="0 0 1024 1024" enable-background="new 0 0 1024 1024" xml:space="preserve">
<rect width="1024" height="1024" fill="#1a1a1a"/>
<path fill="#ffffff" opacity="1.000000" stroke="none" 
	d="
M279.805847,268.104004 
	C277.263000,262.336121 274.865875,256.916107 272.643951,251.892166 
	C274.108551,249.942902 275.517151,249.983475 276.809540,250.003265 
	C298.625488,250.337204 320.462463,248.925797 342.259308,250.659683 
	C356.768097,251.813828 367.233978,258.777832 373.328552,272.261963 
	C402.275726,336.307190 431.278564,400.327393 460.383270,464.301147 
	C462.397003,468.727448 462.553375,472.218018 460.218262,476.809296 
	C445.861298,505.038025 437.999054,535.133911 435.125366,566.648682 
	C434.047699,578.467102 434.158356,590.268005 434.085876,602.088623 
	C434.079956,603.052673 433.910461,604.015686 433.816956,604.979248 
	C433.352753,605.149353 432.888580,605.319458 432.424377,605.489624 
	C381.600128,493.143677 330.775848,380.797729 279.805847,268.104004 
z"/>
<path fill="#ffffff" opacity="1.000000" stroke="none" 
	d="
M521.189880,411.203674 
	C531.175720,399.775116 542.523071,390.024017 551.239014,377.960510 
	C566.201294,357.251709 566.469299,337.109863 552.345398,315.764984 
	C540.575317,297.977295 524.105652,285.368103 506.322571,274.233521 
	C494.866577,267.060516 482.917572,260.814972 470.554474,255.358582 
	C469.804901,255.027740 468.928131,254.884537 468.801941,253.749207 
	C469.564545,252.287323 470.771271,253.148453 471.763641,253.363312 
	C547.127075,269.681458 619.788391,293.803894 688.654846,328.780365 
	C708.422607,338.820190 727.728577,349.694489 745.807800,362.613342 
	C747.163391,363.581970 748.606079,364.449738 749.858459,365.537018 
	C751.921936,367.328522 753.805115,369.396973 752.765503,372.411774 
	C751.802856,375.203400 749.190308,375.850830 746.656738,375.926147 
	C739.495850,376.139069 732.326355,376.050720 725.164307,376.237366 
	C653.472717,378.105469 589.596558,401.306824 535.190918,448.166138 
	C494.403931,483.295837 464.338806,526.183655 448.231934,578.119385 
	C448.087402,578.585388 447.881866,579.058838 447.591400,579.443115 
	C447.423798,579.664795 447.028320,579.714233 446.051178,580.137939 
	C447.539459,548.129456 455.403107,518.054077 468.007050,489.155060 
	C480.744476,459.949982 499.334717,434.656891 521.189880,411.203674 
z"/>
<path fill="#ffffff" opacity="1.000000" stroke="none" 
	d="
M629.941284,423.938965 
	C607.600708,443.601715 593.991699,468.622681 582.326782,495.057404 
	C560.407410,544.730469 538.168823,594.262634 516.149841,643.891907 
	C514.870850,646.774719 513.084106,647.917358 510.056091,647.907654 
	C492.225372,647.850586 474.394226,647.832581 456.563629,647.901062 
	C453.504486,647.912842 451.438202,646.858521 450.410400,643.938293 
	C450.301056,643.627625 450.131500,643.327698 449.940491,643.057678 
	C442.739807,632.878296 443.033386,622.511719 446.466705,610.620728 
	C460.630219,561.566772 483.978241,517.750000 518.665649,480.251556 
	C552.757019,443.397400 593.368958,416.234924 640.928894,399.624969 
	C661.960693,392.279785 683.670776,388.287384 705.641296,385.337250 
	C706.461792,385.227081 707.288208,385.003387 708.877319,386.652283 
	C679.607605,393.384674 652.907959,404.453094 629.941284,423.938965 
z"/>
<path fill="#ffffff" opacity="1.000000" stroke="none" 
	d="
M383.566101,774.397278 
	C382.285492,771.129700 382.748840,768.106812 382.739319,765.130249 
	C382.685059,748.134949 382.835541,731.137878 382.627106,714.145020 
	C382.570740,709.548584 383.733765,707.737122 388.726929,707.632446 
	C394.122894,707.519287 397.203400,709.264465 399.625305,714.107544 
	C404.539062,723.933777 410.037994,733.468201 415.336670,743.100342 
	C416.445129,745.115295 417.246796,747.350708 419.062531,748.922119 
	C420.859650,748.877625 421.089996,747.319336 421.680786,746.246277 
	C427.785950,735.157410 433.850739,724.046326 439.910706,712.932617 
	C442.407776,708.353210 449.896423,705.924927 454.416351,708.198608 
	C456.087524,709.039307 456.161224,710.515320 456.163177,712.016846 
	C456.188782,731.678040 456.173645,751.339294 456.222504,771.000366 
	C456.229675,773.880615 455.143250,775.404419 452.110474,775.258972 
	C450.614746,775.187195 449.102600,775.155029 447.614410,775.288940 
	C443.904572,775.622742 442.656372,773.947937 442.699799,770.318604 
	C442.835327,758.990234 442.727081,747.658875 442.713531,736.328674 
	C442.712616,735.559631 442.713379,734.790588 442.713379,732.489258 
	C436.682648,743.750000 431.330475,753.645264 426.086975,763.597778 
	C424.621765,766.378967 423.206879,768.411072 419.417114,768.445374 
	C415.457825,768.481140 413.907745,766.474060 412.347900,763.454346 
	C407.386047,753.848572 402.223480,744.346375 396.180115,734.818665 
	C396.180115,737.794800 396.183533,740.770874 396.179474,743.747009 
	C396.168060,752.078064 396.160950,760.409180 396.137817,768.740234 
	C396.120026,775.150757 396.017487,775.272644 389.820526,775.255554 
	C387.838562,775.250122 385.812164,775.561890 383.566101,774.397278 
z"/>
<path fill="#ffffff" opacity="1.000000" stroke="none" 
	d="
M710.390991,707.979858 
	C715.892456,706.896362 717.754944,709.679321 719.076965,714.124878 
	C723.623596,729.413696 728.497803,744.605042 733.573608,760.880188 
	C736.361877,755.706604 737.293823,751.065552 738.635315,746.605469 
	C742.083923,735.139648 745.417786,723.638916 748.722229,712.130554 
	C749.433044,709.654663 750.487183,708.037231 753.405090,707.886169 
	C758.454773,707.624634 759.423035,708.595215 757.917969,713.481323 
	C752.042053,732.556396 746.065796,751.600647 740.210205,770.681946 
	C739.279297,773.715515 737.963867,775.438354 734.353210,775.452576 
	C730.713257,775.466980 728.967346,774.148682 727.916138,770.746521 
	C723.065491,755.047607 718.036377,739.403931 712.746887,722.717163 
	C708.377441,736.046570 704.307129,748.441895 700.253662,760.842651 
	C699.064636,764.480286 697.755066,768.090576 696.811829,771.792664 
	C696.010132,774.939453 693.971008,775.426270 691.210083,775.377625 
	C688.587219,775.331421 686.387573,775.283264 685.396851,772.069824 
	C679.073975,751.561340 672.612366,731.095520 666.217834,710.609009 
	C666.081177,710.171204 666.200623,709.653442 666.200623,709.217224 
	C672.524780,706.402954 674.979553,707.383301 676.907837,713.778320 
	C681.561218,729.210815 686.100220,744.677795 691.141785,761.669006 
	C694.950745,750.181519 698.339233,740.093628 701.634155,729.975281 
	C703.591003,723.965759 705.399658,717.908020 707.276855,711.872559 
	C707.763611,710.307556 707.936584,708.518127 710.390991,707.979858 
z"/>
<path fill="#ffffff" opacity="1.000000" stroke="none" 
	d="
M299.938354,753.616394 
	C300.534363,754.548279 300.983368,755.189514 301.798523,756.353516 
	C306.211975,745.907776 310.407257,735.999512 314.583496,726.083252 
	C316.199829,722.245361 318.136688,718.493652 319.277649,714.516174 
	C320.856720,709.011536 324.209167,707.040344 329.644440,707.834534 
	C331.415924,708.093506 333.316681,707.432983 334.941528,708.538330 
	C335.856201,710.161377 334.930176,711.464844 334.350647,712.821350 
	C326.105927,732.119812 317.641693,751.329346 309.763824,770.776428 
	C307.619080,776.070801 303.940826,775.029602 300.078735,775.351807 
	C296.208130,775.674744 294.124084,774.368652 292.576996,770.601196 
	C284.732239,751.497070 276.569366,732.523621 268.537659,713.496094 
	C267.967194,712.144653 267.554779,710.726440 267.081726,709.375854 
	C274.784485,705.555420 280.585541,707.445190 283.597076,714.608521 
	C289.018616,727.504395 294.395660,740.418945 299.938354,753.616394 
z"/>
<path fill="#ffffff" opacity="1.000000" stroke="none" 
	d="
M589.749146,745.677856 
	C589.428528,725.144104 598.822083,711.916382 616.795105,708.333313 
	C635.635864,704.577271 654.296997,715.044861 657.785400,736.434875 
	C660.331055,752.044128 651.383118,771.950745 629.858398,775.383118 
	C610.525818,778.466003 592.529114,767.338806 589.749146,745.677856 
M644.598877,757.025513 
	C650.618347,746.646484 650.278381,734.249939 643.737549,725.612122 
	C637.798645,717.769104 627.339417,714.275330 617.398376,716.813721 
	C606.433777,719.613525 599.048767,728.507446 598.614136,740.909363 
	C598.257935,751.070679 602.840149,761.325500 614.748596,765.992432 
	C625.298462,770.127014 636.832825,766.780396 644.598877,757.025513 
z"/>
<path fill="#ffffff" opacity="1.000000" stroke="none" 
	d="
M477.938416,748.000000 
	C477.954803,736.348938 478.081879,725.196228 477.927734,714.047546 
	C477.867126,709.663635 479.266052,707.735291 483.962616,707.843506 
	C495.440918,708.108032 506.928619,707.972717 518.412537,707.984070 
	C521.469910,707.987061 524.125732,708.273132 524.020142,712.431335 
	C523.916809,716.498230 521.138245,716.224609 518.431335,716.227478 
	C509.610321,716.236877 500.787659,716.338257 491.969147,716.192017 
	C488.594116,716.135986 487.071777,717.187805 487.277863,720.761658 
	C487.507385,724.742981 487.585419,728.767761 487.266968,732.736511 
	C486.916992,737.098328 488.913116,738.171387 492.829407,738.080383 
	C500.314545,737.906311 507.807190,738.034851 515.296509,738.074463 
	C517.752441,738.087402 519.997681,738.357178 520.151855,741.679077 
	C520.293030,744.720337 519.372375,746.370789 515.981018,746.326782 
	C508.160187,746.225464 500.333191,746.469910 492.515961,746.277832 
	C488.656433,746.183044 487.133514,747.472107 487.280548,751.445496 
	C487.520416,757.927185 487.229492,764.427063 487.368073,770.914856 
	C487.436798,774.131042 486.206238,775.348572 482.985321,775.337830 
	C479.827118,775.327332 477.865387,774.641907 477.915100,770.968079 
	C478.016388,763.479980 477.939819,755.989502 477.938416,748.000000 
z"/>
<path fill="#ffffff" opacity="1.000000" stroke="none" 
	d="
M583.423462,774.529846 
	C569.601990,775.872375 556.114014,775.129211 542.635254,775.236572 
	C538.846008,775.266785 539.170593,772.262024 539.157166,769.834290 
	C539.075195,755.004456 539.074402,740.174072 539.052246,725.343872 
	C539.045776,721.011658 539.104126,716.678772 539.046875,712.347351 
	C538.999390,708.750366 541.015503,707.899109 544.184204,707.927734 
	C547.484619,707.957581 548.431152,709.509888 548.415771,712.597473 
	C548.334473,728.927002 548.505554,745.258545 548.318726,761.586243 
	C548.270569,765.790588 549.759949,767.126404 553.823547,767.020569 
	C561.982788,766.808105 570.152039,766.929810 578.316711,766.987122 
	C584.486694,767.030396 584.971375,767.725464 583.423462,774.529846 
z"/>
<path fill="#ffffff" opacity="1.000000" stroke="none" 
	d="
M353.103027,775.260010 
	C348.842529,775.669006 347.764282,773.745056 347.781342,770.219177 
	C347.874176,751.058594 347.921356,731.896423 347.759308,712.736755 
	C347.714630,707.456970 351.050537,707.875854 354.446320,707.922180 
	C357.732239,707.967041 361.293762,707.210999 361.257507,712.592529 
	C361.127228,731.919312 361.127747,751.248169 361.277344,770.574768 
	C361.326508,776.923340 356.820465,774.839417 353.103027,775.260010 
z"/>
</svg>